<svg width="608" height="244" viewBox="0 0 608 244" fill="white" xmlns="http://www.w3.org/2000/svg">
	<g clip-path="url(#clip0_3_3)">
		<path d="M131.3 207.5C129.6 209.1 127.9 210.6 126.2 212C124.5 213.4 122.8 214.7 121 215.7C119.3 216.8 117.6 217.6 115.9 218.1C114.2 218.6 112.6 218.8 111.1 218.6C109.5 218.4 108.3 217.7 107.4 216.7C106.5 215.7 105.9 214.3 105.5 212.7C105.1 211.1 104.8 209.2 104.6 207C104.4 204.9 104.3 202.6 104.1 200.2C103.9 198.2 103.6 195 103.3 190.8C103.1 189 103 186.9 102.7 184.5C102.5 182.1 102.3 179.2 102 176C101.7 172.8 101.4 169.2 101.1 165.2C100.8 161.2 100.4 156.7 100 151.8C98 154.2 95.9 156.8 93.7 159.6C91.5 162.3 89.3 165.2 87.2 168.1C85 171.1 83 174.1 81 177.2C79 180.3 77.2 183.4 75.6 186.5C74 189.6 72.7 192.7 71.7 195.8C70.7 198.9 70 201.8 69.8 204.6L56.8 217.8C56.9 216.5 56.8 215.2 56.7 213.9C56.5 212.6 56.4 211.4 56.1 210.4C55.8 209.2 55.5 208.1 55.1 207C53.3 202.6 51.4 198.2 49.3 193.9C47.2 189.6 45.1 185.4 42.9 181.2C40.7 177 38.4 172.8 36.2 168.7C33.9 164.6 31.7 160.4 29.5 156.3C28.6 160.1 27.8 163.6 27.1 166.7C26.4 169.9 25.8 172.6 25.2 175C24.6 177.7 24 180.2 23.6 182.4C20.4 196.8 19.4 204.7 20.6 206.1C20.9 206.4 21.4 206.7 22.1 207C22.8 207.2 23.7 207.4 24.7 207.4C25.9 207.4 27.2 207.2 28.7 206.7C30.2 206.2 31.7 205.4 33.4 204.2C30.9 206.5 28.6 208.6 26.6 210.5C24.5 212.4 22.6 214.1 20.8 215.4C19 216.7 17.4 217.7 15.8 218.2C14.3 218.8 12.8 218.8 11.3 218.4C10.2 218 9.4 217.4 9 216.4C8.5 215.5 8.3 214.2 8.3 212.7C8.3 210.5 8.7 207.8 9.4 204.6C10.2 201.4 11 197.6 11.9 193.4C12.4 191.1 13.1 188.3 13.8 185.2C14.5 182.1 15.2 178.8 16 175.3C16.8 171.9 17.6 168.3 18.3 164.8C19.1 161.2 19.8 157.8 20.5 154.6C21.2 151.4 21.9 148.4 22.4 145.8C23 143.1 23.4 141 23.8 139.3C24 138.8 24.5 138.1 25.5 137C25.9 136.5 26.5 136 27.1 135.4C27.7 134.8 28.5 134 29.4 133.2C30.3 132.4 31.4 131.4 32.6 130.3C33.8 129.2 35.2 128 36.8 126.7C36.5 128.1 36.5 129.6 36.7 131.2C36.9 132.8 37.2 134.3 37.6 135.6C38 137.2 38.6 138.8 39.3 140.3C39.8 141.5 40.7 143.3 42 145.8C43.3 148.2 44.7 151 46.4 154.1C48 157.2 49.8 160.5 51.7 164C53.6 167.5 55.4 171 57.2 174.4C59 177.8 60.6 181 62.1 184.1C63.6 187.2 64.8 189.8 65.7 191.9C67.4 188.9 69.3 186 71.4 183C73.5 180.1 75.6 177.2 77.8 174.3C80 171.4 82.2 168.5 84.4 165.5C86.6 162.6 88.7 159.6 90.6 156.6C92.6 153.6 94.4 150.5 96 147.3C97.6 144.1 99 140.8 100.1 137.5C101.1 136.3 102.3 135.1 103.7 133.8C104.9 132.7 106.3 131.4 108 129.9C109.7 128.4 111.6 126.8 113.8 125.1C113.4 126.3 113.1 127.6 112.9 129.1C112.7 130.6 112.6 132.1 112.6 133.4C112.5 135 112.5 136.6 112.6 138.2C112.6 139.3 112.7 140.9 112.9 143.2C113.1 145.5 113.3 148.1 113.5 151.1C113.7 154.1 114 157.4 114.3 161C114.6 164.6 115 168.2 115.3 171.8C115.6 175.4 116 179 116.3 182.5C116.6 186 117 189.2 117.3 192.1C117.6 195 117.9 197.5 118.2 199.6C118.5 201.7 118.7 203.1 118.9 204C119.1 204.9 119.4 205.8 119.9 206.4C120.4 207.1 120.9 207.6 121.5 208C122.1 208.4 122.8 208.7 123.5 208.9C124.2 209.1 124.9 209.2 125.7 209.2C126.7 209.2 127.7 209.1 128.6 208.8C129.9 208.2 130.7 207.8 131.3 207.5Z"/>
		<path d="M164 211.2C162.4 212.3 160.8 213.2 159.3 214.1C157.8 215 156.3 215.8 154.8 216.4C153.4 217.1 152 217.6 150.8 218C149.5 218.4 148.4 218.7 147.3 218.8C146.2 218.9 145.3 219 144.5 218.9C143.7 218.9 143 218.7 142.5 218.4C142 218.1 141.5 217.5 141.3 216.8C141 216.1 140.9 215 140.9 213.7C140.9 213 140.9 211.9 140.9 210.3C140.9 208.7 140.9 206.7 140.9 204.5C140.9 202.2 140.9 199.8 141 197.1C141 194.4 141.1 191.7 141.1 188.9C141.1 186.1 141.2 183.5 141.2 180.8C141.2 178.2 141.3 175.8 141.3 173.6C141.3 171.5 141.4 169.7 141.4 168.2C141.4 166.7 141.5 165.8 141.5 165.4C141.5 164.5 141.1 163.8 140.3 163.4C139.5 163 138.4 162.8 137.2 162.8C136.2 162.8 135.2 162.9 134.1 163.1C133 163.3 132 163.5 131 163.7C132.4 162.8 133.8 162 135.1 161.2C136.4 160.4 137.8 159.8 139.2 159.2C140.6 158.6 142 158.2 143.4 157.9C144.8 157.6 146.3 157.4 147.8 157.4C148.4 157.4 149 157.4 149.5 157.5C150 157.6 150.5 157.7 150.9 157.8C151.3 157.9 151.6 158.1 151.8 158.4C152 158.6 152.1 158.9 152.1 159.3C152.1 160.3 152.1 162.8 152.1 166.8C152.1 168.5 152.1 170.6 152.1 173.1C152.1 175.6 152.1 178.7 152.1 182.2C152.1 185.8 152.1 189.9 152.1 194.6C152.1 199.3 152.1 204.7 152.1 210.8C153.6 211.1 154.9 211.3 156.1 211.4C157.3 211.5 158.4 211.5 159.3 211.5C160.1 211.5 160.8 211.5 161.4 211.4C162 211.3 162.5 211.3 163 211.2C163.3 211.4 163.7 211.3 164 211.2Z"/>
		<path d="M233.9 156.4C233.5 156.6 233.2 156.8 233 157.2C232.8 157.6 232.6 157.8 232.5 158.2C232.4 158.6 232.3 159 232.3 159.4C232.3 159.7 232.2 160.4 232.2 161.5C232.2 162.6 232.1 164 232 165.6C231.9 167.3 231.9 169.1 231.8 171.2C231.7 173.3 231.7 175.4 231.6 177.6C231.5 179.8 231.4 182 231.4 184.2C231.3 186.4 231.3 188.5 231.2 190.4C231.1 192.3 231.1 194.1 231 195.6C231 197.1 230.9 198.3 230.9 199.2C230.8 200.9 230.8 202.3 230.7 203.4C230.6 204.5 230.4 205.4 230.3 206.1C230.1 206.8 229.9 207.4 229.6 207.9C229.3 208.4 229 208.9 228.7 209.5C228.5 210 228.1 210.7 227.6 211.6C227.2 212.4 226.6 213.4 225.8 214.7C225 216 224.1 217.6 222.9 219.5C222.5 218.3 221.8 217.1 221 215.8C220.1 214.5 219.2 213.3 218.3 212.2C217.2 210.9 216.1 209.7 214.8 208.4C213.4 207 211.1 204.8 208.1 201.9C206.8 200.7 205.3 199.2 203.5 197.5C201.7 195.8 199.7 193.9 197.3 191.6C195 189.4 192.3 186.9 189.4 184C186.5 181.2 183.2 178.1 179.6 174.6C179.5 177.8 179.5 180.7 179.5 183.3C179.5 185.9 179.4 188.2 179.4 190.3C179.4 192.4 179.3 194.1 179.3 195.7C179.3 197.2 179.3 198.5 179.3 199.7C179.3 202.3 179.3 204.2 179.3 205.3C179.3 206.1 179.4 206.9 179.5 207.6C179.7 208.3 180 208.9 180.4 209.4C180.8 209.9 181.3 210.3 182 210.6C182.7 210.9 183.4 211 184.4 211C185.3 211 186.4 210.8 187.6 210.5C188.8 210.2 190.2 209.7 191.7 209C190.4 210.3 189.1 211.4 187.9 212.3C186.7 213.2 185.6 214 184.6 214.7C183.6 215.4 182.6 215.9 181.7 216.3C180.8 216.7 180 217.1 179.3 217.3C177.6 217.9 176.1 218.1 174.9 218C173.9 217.8 173.2 217.4 172.9 216.8C172.6 216.2 172.4 215.4 172.4 214.3C172.4 206 172.5 197.7 172.8 189.5C173.1 181.3 173.2 173.1 173.2 164.9C173.2 163.7 173.2 162.6 173.2 161.8C173.2 161 173.2 160.4 173.1 160C173.3 159.3 173.8 158.5 174.4 157.7C175 156.9 175.8 156 176.9 155C178 153.9 179.4 152.7 181.3 151.4C181.1 152 180.9 152.5 180.9 153C180.9 153.5 180.8 154 180.8 154.5C180.8 155.3 180.9 156 181 156.5C181.1 157.1 181.3 157.6 181.6 158C181.8 158.5 182.1 158.9 182.4 159.3C183.3 160.4 184.5 161.7 186 163.2C187.5 164.7 189.2 166.4 191.1 168.2C193 170.1 195.2 172.1 197.5 174.4C199.8 176.7 202.3 179.1 205 181.8C206.9 183.5 208.9 185.4 211 187.5C212.8 189.2 214.9 191.3 217.2 193.6C219.5 195.9 221.9 198.5 224.3 201.1C224.4 196.2 224.4 192 224.4 188.5C224.4 184.9 224.4 181.9 224.4 179.2C224.4 176.8 224.4 174.8 224.4 173.2C224.4 171.6 224.4 170.4 224.3 169.4C224.3 168.3 224.2 167.5 224.2 166.8C224.2 165.9 224.1 165.1 223.8 164.5C223.5 163.9 223.2 163.4 222.8 163.1C222.4 162.8 221.9 162.5 221.4 162.4C220.9 162.3 220.3 162.2 219.8 162.2C219.2 162.2 218.6 162.3 218 162.4C217.4 162.5 217 162.7 216.7 162.9C217.8 161.9 219 161.1 220.1 160.2C221.2 159.4 222.3 158.6 223.5 158C224.7 157.4 225.9 156.9 227.1 156.5C228.4 156.1 229.7 156 231.2 156C232.1 156.1 233 156.2 233.9 156.4Z"/>
		<path d="M274.6 211.2C273 212.3 271.4 213.2 269.9 214.1C268.4 215 266.9 215.8 265.4 216.4C264 217.1 262.6 217.6 261.4 218C260.1 218.4 259 218.7 257.9 218.8C256.8 218.9 255.9 219 255.1 218.9C254.3 218.9 253.6 218.7 253.1 218.4C252.6 218.1 252.1 217.5 251.9 216.8C251.6 216.1 251.5 215 251.5 213.7C251.5 213 251.5 211.9 251.5 210.3C251.5 208.7 251.5 206.7 251.5 204.5C251.5 202.2 251.5 199.8 251.6 197.1C251.6 194.4 251.7 191.7 251.7 188.9C251.7 186.1 251.8 183.5 251.8 180.8C251.8 178.2 251.9 175.8 251.9 173.6C251.9 171.5 252 169.7 252 168.2C252 166.7 252.1 165.8 252.1 165.4C252.1 164.5 251.7 163.8 250.9 163.4C250.1 163 249 162.8 247.8 162.8C246.8 162.8 245.8 162.9 244.7 163.1C243.6 163.3 242.6 163.5 241.6 163.7C243 162.8 244.4 162 245.7 161.2C247 160.4 248.4 159.8 249.8 159.2C251.2 158.6 252.6 158.2 254 157.9C255.4 157.6 256.9 157.4 258.4 157.4C259 157.4 259.6 157.4 260.1 157.5C260.6 157.6 261.1 157.7 261.5 157.8C261.9 157.9 262.2 158.1 262.4 158.4C262.6 158.6 262.7 158.9 262.7 159.3C262.7 160.3 262.7 162.8 262.7 166.8C262.7 168.5 262.7 170.6 262.7 173.1C262.7 175.6 262.7 178.7 262.7 182.2C262.7 185.8 262.7 189.9 262.7 194.6C262.7 199.3 262.7 204.7 262.7 210.8C264.2 211.1 265.5 211.3 266.7 211.4C267.9 211.5 269 211.5 269.9 211.5C270.7 211.5 271.4 211.5 272 211.4C272.6 211.3 273.1 211.3 273.6 211.2C273.8 211.4 274.3 211.3 274.6 211.2Z"/>
		<path d="M347.6 185.1C347.6 187.9 347.2 190.6 346.4 193C345.6 195.5 344.5 197.8 343.2 199.9C341.8 202 340.2 204 338.3 205.8C336.4 207.6 334.4 209.2 332.2 210.6C334.8 213.1 337.4 215.5 340 217.7C342.6 220 344.9 222 347 223.8C349.4 225.9 351.8 227.8 354 229.6C356.1 230.9 358.3 232.1 360.8 233.1C361.8 233.5 362.9 234 364.1 234.4C365.3 234.8 366.6 235.2 367.9 235.5C369.2 235.8 370.6 236.1 372 236.3C373.4 236.5 374.9 236.6 376.3 236.6C378.4 236.6 380.5 236.4 382.6 235.9C384.7 235.4 386.7 234.6 388.8 233.4C386.8 235 384.9 236.5 382.8 237.8C380.8 239.1 378.7 240.2 376.6 241.1C374.5 242 372.3 242.7 370.1 243.2C367.9 243.7 365.6 244 363.2 244C361.6 244 359.9 243.9 358.2 243.6C356.5 243.3 354.7 242.8 352.9 242.1C351.1 241.4 349.2 240.4 347.2 239.2C345.2 238 343.2 236.5 341 234.6L319.6 216.4C315.1 217.8 310.7 218.5 306.6 218.5C302.5 218.5 298.7 217.8 295.3 216.5C291.9 215.2 289 213.3 286.5 210.9C284.1 208.5 282.2 205.7 280.8 202.4C279.4 199.1 278.8 195.5 278.8 191.6C278.8 188 279.5 184.6 280.9 181.4C282.3 178.2 284.2 175.2 286.6 172.5C289 169.8 291.7 167.4 294.9 165.3C298 163.2 301.3 161.6 304.8 160.4C305.6 160.1 306.6 159.8 307.7 159.5C308.9 159.2 310.1 158.8 311.5 158.5C312.9 158.2 314.4 157.9 316 157.7C317.6 157.5 319.2 157.4 320.9 157.4C323.6 157.4 326.2 157.7 328.5 158.4C330.8 159.1 333 160 335 161.3C337 162.5 338.7 164 340.3 165.7C341.8 167.4 343.2 169.3 344.2 171.3C345.3 173.4 346.1 175.5 346.6 177.9C347.3 180.2 347.6 182.6 347.6 185.1ZM310.9 162.7C307.4 162.7 304.3 163.3 301.7 164.6C299.1 165.9 296.9 167.6 295.2 169.7C293.5 171.8 292.2 174.3 291.3 177.2C290.4 180 290 183.1 290 186.2C290 190.2 290.7 193.9 292.2 197.2C293.6 200.5 295.6 203.4 298.1 205.8C300.6 208.2 303.6 210.1 307 211.4C310.4 212.7 314.1 213.4 318.1 213.4C320.3 213.4 322.2 213.1 324 212.4C325.8 211.7 327.3 210.8 328.7 209.6C330.1 208.4 331.3 207 332.3 205.5C333.3 203.9 334.2 202.2 334.8 200.5C335.5 198.7 335.9 196.9 336.3 195C336.7 193.1 336.8 191.3 336.8 189.5C336.8 185.8 336.2 182.3 334.9 179C333.7 175.7 331.9 172.9 329.6 170.5C327.3 168.1 324.6 166.2 321.4 164.8C318.2 163.4 314.7 162.7 310.9 162.7Z"/>
		<path d="M419 159.4C419 159.7 418.9 160.5 418.9 161.5C418.8 162.6 418.7 163.9 418.6 165.5C418.5 167.1 418.3 168.8 418 170.8C417.7 172.8 417.5 174.8 417.2 176.9C416.9 179 416.5 181.2 416.1 183.3C415.7 185.5 415.2 187.6 414.6 189.6C414 191.6 413.4 193.5 412.7 195.2C412 196.9 411.2 198.4 410.4 199.6C408.7 202 406.8 204.3 404.6 206.5C402.5 208.7 400.2 210.6 397.9 212.3C395.6 214 393.3 215.3 390.9 216.4C388.5 217.4 386.3 218.1 384.1 218.2C382 218.4 379.9 218.2 377.8 217.7C375.7 217.2 373.8 216.3 372.1 215C370.4 213.7 368.9 212 367.6 209.8C366.4 207.6 365.5 204.9 365.1 201.7C364.8 199.6 364.6 197.2 364.4 194.8C364.2 192.3 364.1 189.8 364 187.3C363.9 184.8 363.8 182.3 363.8 179.9C363.7 177.5 363.7 175.3 363.7 173.3C363.7 171.3 363.6 169.6 363.6 168.3C363.6 166.9 363.5 166 363.5 165.5C363.3 163.8 362.1 163 359.9 163C359 163 358 163.2 356.8 163.5C355.6 163.8 354.2 164.3 352.7 165C354 163.8 355.3 162.7 356.5 161.7C357.7 160.7 359 159.9 360.4 159.1C361.8 158.3 363.1 157.8 364.6 157.4C366 157 367.6 156.8 369.3 156.8C369.9 156.8 370.4 156.8 370.9 156.9C371.4 157 371.8 157.1 372.2 157.3C372.6 157.5 372.9 157.7 373.1 158C373.3 158.3 373.4 158.6 373.4 159C373.4 159.4 373.4 160.1 373.4 161.2C373.4 162.3 373.4 163.6 373.4 165.2C373.4 166.8 373.5 168.5 373.5 170.4C373.6 172.3 373.6 174.3 373.7 176.3C373.8 178.3 373.8 180.4 373.9 182.4C374 184.4 374 186.4 374.1 188.2C374.2 190 374.2 191.6 374.3 193C374.4 194.4 374.4 195.6 374.5 196.4C374.7 199.3 375.3 201.7 376.3 203.7C377.3 205.7 378.6 207.3 380.2 208.5C381.7 209.7 383.4 210.6 385.3 211.2C387.1 211.7 389 212 390.7 212C392.3 212 393.8 211.8 395.1 211.4C396.4 211 397.6 210.5 398.5 209.8C399.5 209.1 400.5 207.8 401.4 205.9C402.3 204 403.1 201.9 403.8 199.3C404.5 196.8 405.1 194 405.7 191.1C406.3 188.1 406.8 185.1 407.2 182.1C407.6 179.1 408.1 176.2 408.4 173.4C408.7 170.6 409 168.1 409.3 165.9C409.3 165.4 409.2 164.9 408.9 164.5C408.7 164.1 408.3 163.8 407.7 163.5C407.1 163.2 406.3 163 405.2 163C404.6 163 404 163 403.3 163.1C402.6 163.2 401.8 163.4 400.8 163.6C402 162.7 403.2 161.8 404.4 161C405.6 160.2 406.8 159.5 408 158.9C409.2 158.3 410.4 157.8 411.7 157.5C413 157.2 414.3 157 415.7 157C416.8 157 417.8 157.2 418.5 157.5C418.8 157.9 419.1 158.5 419 159.4Z"/>
		<path d="M476.4 166.8C477.1 166.3 477.4 165.8 477.3 165.4C477.2 164.9 477.1 164.6 476.7 164.2C476.3 163.8 475.8 163.4 475.1 163.1C473.8 162.5 472.1 162.1 470 161.8C467.9 161.5 465.7 161.4 463.4 161.4C460.1 161.4 457 161.7 454.1 162.3C451.2 162.9 448.6 164 446.3 165.5C444 167 442.2 169.2 440.7 171.9C439.2 174.6 438.3 178.1 437.9 182.3C439.6 182.4 441.2 182.4 442.9 182.4C444.6 182.4 446.2 182.4 447.8 182.4C449.7 182.4 451.9 182.4 454.3 182.3C456.7 182.2 459.1 182.1 461.6 182C464.1 181.9 466.5 181.8 468.9 181.6C471.3 181.5 473.5 181.4 475.4 181.3C477.3 181.2 478.9 181.2 480.2 181.2C481.5 181.2 482.3 181.3 482.5 181.4C482.8 181.6 482.9 181.8 482.7 182.2C482.5 182.6 482.1 183 481.5 183.4C480.9 183.9 480.2 184.4 479.3 184.9C478.4 185.4 477.5 185.9 476.6 186.4C475.6 186.9 474.7 187.3 473.7 187.8C472.7 188.2 471.9 188.5 471.1 188.8C471.7 187.8 471.8 187 471.4 186.6C471 186.2 469.9 185.9 468.2 185.9C467.4 185.9 466.7 185.9 466 185.9C465.3 185.9 464.6 186 463.8 186C463 186.1 461.9 186.1 460.7 186.2C459.5 186.3 457.8 186.4 455.9 186.6C453.9 186.7 451.5 186.9 448.5 187.1C445.6 187.3 442 187.5 437.8 187.8C437.9 192.1 438.7 195.7 440.1 198.7C441.5 201.7 443.4 204.2 445.8 206.1C448.2 208 451.1 209.5 454.5 210.5C457.9 211.5 461.6 212.2 465.6 212.5C467.9 212.6 470.2 212.5 472.5 212.2C473.5 212.1 474.5 211.9 475.6 211.6C476.7 211.3 477.7 211.1 478.8 210.7C479.9 210.3 480.9 209.8 482 209.3C483 208.7 484 208.1 484.9 207.3C482.9 209 480.8 210.5 478.6 211.9C476.4 213.3 474.2 214.4 471.8 215.4C469.5 216.4 467.1 217.2 464.7 217.7C462.3 218.2 459.9 218.5 457.6 218.5C455.5 218.5 453.4 218.3 451.1 218C448.8 217.7 446.5 217.1 444.3 216.3C442.1 215.5 439.9 214.5 437.9 213.2C435.9 211.9 434.1 210.3 432.6 208.4C431.1 206.5 430 204.2 429.2 201.6C428.4 199 428.1 196 428.3 192.6C428.5 188.7 429.3 185 430.6 181.7C431.9 178.4 433.7 175.3 435.9 172.7C438.1 170 440.6 167.6 443.4 165.6C446.3 163.5 449.3 161.8 452.5 160.5C455.7 159.1 459.1 158.1 462.6 157.4C466.1 156.7 469.6 156.3 473 156.3C474.5 156.3 475.9 156.4 477.2 156.5C478.5 156.6 479.6 156.8 480.6 157C481.6 157.2 482.5 157.4 483.2 157.6C483.9 157.8 484.5 158 484.9 158.2C486.1 158.7 486.7 159.4 486.7 160.1C486.7 160.5 486.5 161 486 161.5C485.6 162 485 162.5 484.3 162.9C483.6 163.3 482.8 163.8 482 164.3C481.2 164.8 480.4 165.1 479.6 165.5C478.8 165.9 478.1 166.2 477.5 166.5C477.1 166.5 476.6 166.7 476.4 166.8Z"/>
		<path d="M539.7 158.6C540.2 158.8 540.4 159.1 540.4 159.6C540.4 160.1 540.2 160.5 539.8 161.1C539.4 161.7 539 162.2 538.3 162.9C537.7 163.5 537 164.2 536.2 164.8C535.6 165.3 534.9 165.8 534 166.4C533.3 166.9 532.4 167.5 531.4 168.2C530.4 168.9 529.2 169.6 527.9 170.4C528.6 169.7 529.1 169.1 529.4 168.6C529.7 168.1 529.8 167.6 529.8 167.1C529.8 166.5 529.6 166 529.1 165.5C528.6 165 528 164.7 527.2 164.4C526.4 164.1 525.6 163.8 524.7 163.7C523.8 163.5 522.9 163.4 522 163.3C521.1 163.2 520.3 163.1 519.6 163.1C518.9 163.1 518.3 163.1 518 163.1C516.6 163.1 515.1 163.2 513.6 163.5C512.1 163.8 510.8 164.2 509.6 164.9C508.4 165.6 507.5 166.4 506.7 167.5C506 168.6 505.6 169.9 505.6 171.5C505.6 173.3 506.1 174.8 507.1 176.1C508.1 177.4 509.5 178.5 511.2 179.5C512.9 180.5 514.8 181.3 516.9 182C519 182.7 521.2 183.4 523.4 184C525.6 184.6 527.7 185.3 529.8 186C531.9 186.7 533.6 187.4 535.2 188.3C537.2 189.5 538.7 190.8 539.5 192.4C540.3 194 540.8 195.6 540.8 197.3C540.8 199.5 540.2 201.6 539 203.6C537.8 205.6 536.2 207.5 534.3 209.2C532.4 210.9 530.2 212.5 527.7 213.9C525.2 215.3 522.7 216.5 520.2 217.4C517.7 218.4 515.2 219.1 512.9 219.7C510.5 220.2 508.5 220.5 506.7 220.5C504.4 220.5 502.5 220.3 500.8 219.8C499.1 219.4 497.7 218.8 496.5 218.2C495.3 217.6 494.5 217 494 216.3C493.4 215.7 493.2 215.1 493.3 214.7C493.4 214.2 493.6 213.7 494.1 213.1C494.5 212.5 495.2 211.9 496.1 211.3C497 210.7 498.1 209.9 499.5 209.1C500.9 208.3 502.5 207.4 504.4 206.5C503.6 207.2 503.3 207.9 503.3 208.6C503.4 209.2 503.8 209.8 504.5 210.3C505.2 210.8 506.1 211.2 507.2 211.6C508.3 212 509.5 212.3 510.8 212.6C512.1 212.9 513.3 213 514.6 213.2C515.9 213.3 517 213.4 518 213.4C519.7 213.4 521.3 213.2 523 212.9C524.6 212.6 526.1 212 527.4 211.3C528.7 210.5 529.8 209.6 530.6 208.3C531.4 207 531.8 205.6 531.8 203.8C531.8 202.8 531.6 201.7 531.1 200.6C530.7 199.5 529.9 198.4 528.9 197.4C527.9 196.4 526.4 195.4 524.7 194.5C522.9 193.6 520.7 192.8 518.1 192.1C514.1 191.1 510.7 190 507.9 188.9C505.1 187.8 502.9 186.6 501.3 185.4C499.6 184.1 498.5 182.8 497.8 181.3C497.1 179.8 496.9 178.1 497.1 176.3C497.3 174.2 497.9 172.2 499.1 170.4C500.3 168.6 501.8 167.1 503.6 165.7C505.4 164.3 507.4 163.1 509.7 162.1C511.9 161.1 514.2 160.2 516.5 159.5C518.8 158.8 521.1 158.3 523.3 158C525.5 157.7 527.5 157.5 529.2 157.5C530.5 157.5 531.7 157.6 532.9 157.7C534.1 157.8 535.1 157.9 536 158.1C536.9 158.2 537.7 158.4 538.3 158.6C539 158.3 539.5 158.4 539.7 158.6Z"/>
		<path d="M590.7 211.9C589.6 212.8 588.4 213.7 587 214.6C585.6 215.5 584.2 216.4 582.6 217.2C581.1 218 579.4 218.6 577.7 219.1C576 219.6 574.3 219.9 572.5 219.9C572 219.9 571.4 219.8 570.9 219.7C570.4 219.6 569.9 219.3 569.5 219C569.1 218.7 568.8 218.2 568.5 217.7C568.3 217.1 568.1 216.4 568.2 215.6C568.2 214.6 568.3 212.1 568.4 208.1C568.4 206.4 568.5 204.3 568.5 201.8C568.6 199.3 568.6 196.2 568.7 192.6C568.8 189 568.9 184.9 569 180.1C569.1 175.3 569.3 169.9 569.4 163.7C566.8 164 564.3 164.2 561.8 164.4C559.3 164.6 556.8 164.7 554.2 164.7C551.9 164.7 549.9 164.6 548.4 164.3C546.9 164 545.8 163.6 545.1 162.9C544.7 162.3 544.9 161.6 545.4 160.7C545.6 160.3 546 159.9 546.5 159.4C547 158.9 547.6 158.4 548.4 157.8C549.2 157.2 550.2 156.6 551.4 155.9C552.6 155.2 554 154.5 555.6 153.7C555.2 154.2 555 154.7 555 155C555 155.3 555.1 155.7 555.3 155.9C555.5 156.2 555.8 156.4 556.2 156.6C557 156.9 558.2 157.2 559.8 157.4C561.4 157.6 563.7 157.7 566.5 157.7C569.7 157.7 572.8 157.6 575.8 157.3C578.9 157.1 581.9 156.8 584.8 156.5C587.8 156.2 590.7 155.9 593.7 155.7C596.7 155.5 599.6 155.3 602.5 155.3C603.3 155.3 604 155.3 604.6 155.4C605.2 155.5 605.7 155.5 606 155.7C606.5 155.9 606.7 156.2 606.5 156.6C606.3 157 606 157.5 605.3 158C604.7 158.5 603.9 159.1 603 159.6C602.1 160.1 601.2 160.7 600.2 161.2C599.2 161.7 598.3 162.1 597.5 162.5C596.6 162.9 596 163.2 595.5 163.3C595.7 162.5 595.6 161.9 595 161.6C594.4 161.3 593.2 161.2 591.4 161.3C587.3 161.6 583.3 162 579.4 162.5L577.8 211.8C578.4 212.3 579.2 212.6 580 212.8C580.8 213 581.8 213.1 582.7 213.1C583.6 213.1 584.5 213 585.4 212.9C586.3 212.8 587.1 212.6 587.8 212.5C589.2 212.3 590 212.1 590.7 211.9Z"/>
		<path fill-rule="evenodd" clip-rule="evenodd" d="M605.6 147H129.4C128.6 147 128 146.5 128 146V144C128 143.5 128.5 143.1 129.2 143C140.5 141.8 151.8 140.6 163 139.4C163.2 139.4 163.4 139.3 163.6 139.2C163.9 139 164.2 138.8 164.2 138.4C164.7 134.2 165.1 130 165.6 125.7C165.7 124.9 167 124.5 167.9 125C172.4 127.9 176.7 130.5 181.6 132.7C183.4 133.5 185.4 134.3 187.4 135C187.4 135 187.5 135 187.5 135.1C191.7 137 196.6 138.2 201.8 138.3C208.4 138.5 215.2 137 221 133.3C221.5 133 221.6 132.3 221.3 131.8C220.4 130.5 219.5 129.3 218.6 128C217.3 126.2 218.6 123.6 220.9 123.6H222.9C223.1 123.6 223.3 123.7 223.5 123.8C228.2 127.3 232.9 130.8 237.6 134.3C238.2 134.7 239 134.5 239.2 133.8C240.5 129.7 241.2 129.1 245.6 127.7C246.1 127.5 246.7 127.8 246.9 128.3C251.8 140.5 267.2 139.9 284.8 139C285.2 139 285.5 138.8 285.7 138.4C287.5 135 288.8 135.2 291.1 133.2C291.5 132.8 291.6 132.2 291.2 131.8C284.2 123.3 282.1 107.6 285.4 92.6H286C286.5 92.6 286.9 92.7 287.4 93C294.7 97.1 299.5 98.5 299.7 110.7V136.3C299.7 137.8 300.9 139.1 302.5 139.1H303.8C304.4 139.1 304.8 138.6 304.8 138.1C304.5 122.9 304.8 107.8 308.5 97.3C308.6 96.9 309 96.6 309.5 96.6H314.2C314.8 96.6 315.2 97.1 315.2 97.6C315.4 113.5 313.5 125.9 311.5 137.9C311.4 138.5 311.9 139.1 312.5 139.1H325C325.1 139.1 325.3 139.1 325.4 139.1C332.5 137.9 339.5 136.6 346.6 135.4C347 135.3 347.3 135.1 347.4 134.7C349.9 126.1 352.3 117.5 354.8 109C354.9 108.6 355.3 108.3 355.8 108.3H356.5C357.1 108.3 357.6 108.8 357.5 109.4C356.8 126.1 361.2 135.3 377.4 135.4C377.9 135.4 378.3 135.1 378.4 134.6C378.7 133.6 378.9 132.6 379.2 131.7C380.2 128.7 384.6 129.4 384.6 132.6C384.6 134.1 385.8 135.4 387.4 135.4H392.8C393.3 135.4 393.7 135 393.8 134.5C394.2 132.2 394.6 129.9 395 127.6H396.3V134.4C396.3 135 396.7 135.4 397.3 135.4C413.6 136.1 434.6 144.7 451.7 138C451.9 137.9 452 137.8 452.2 137.8C457.1 134.8 458.3 132.6 458.4 124.8C458.4 124.2 458.9 123.8 459.4 123.8H461.8C462.1 123.8 462.3 123.9 462.5 124.1C466.9 128.3 469.3 134.2 474.8 137.2C475.2 137.4 475.6 137.6 476 137.8C476.3 137.9 476.6 137.9 476.9 138C478.4 138.1 479.9 138.3 481.4 138.4C481.5 138.4 481.6 138.4 481.6 138.4C493.1 140.5 505.1 142.1 515.6 138C515.8 137.9 515.9 137.8 516.1 137.8C517.4 137 518.4 136.3 519.2 135.6C521.6 133.4 531.3 130.6 531.4 124.8C531.4 124.2 531.9 123.8 532.4 123.8H534.8C535.1 123.8 535.3 123.9 535.5 124.1C540.2 128.7 533.7 135.2 540.3 137.9C540.4 138 540.5 138 540.6 138L553.7 139.2C554.2 139.2 554.7 138.9 554.8 138.4C555.2 136.1 555.6 133.9 555.9 131.6H557.2V136.4C557.2 138 558.6 139.3 560.3 139.2C569.8 138.4 574.6 134.3 579.6 133.2C580.8 132.9 582.1 133.6 582.7 134.7C584 137.3 585.3 140 586.7 142.6C586.9 143 587.3 143.2 587.7 143.2C594.9 142.6 602.3 142.1 606.2 145.3C607 145.8 606.5 147 605.6 147ZM359.9 108.3C359.3 108.3 358.8 107.8 358.8 107.3V107.2C358.8 106.1 360.4 105.8 360.8 106.8C360.8 106.8 360.8 106.8 360.8 106.9C361.1 107.6 360.6 108.3 359.9 108.3ZM329.3 92.8H324.9C324.3 92.8 323.9 92.3 323.9 91.8V85.6C323.9 85.3 324.1 85 324.3 84.8C325.8 83.7 327.3 82.6 328.8 81.4C329 81.3 329.2 81.2 329.4 81.2H330.3V91.8C330.4 92.4 329.9 92.8 329.3 92.8ZM322.4 81.6C315.2 94.2 287.8 88.7 276.6 84.1C276.3 84 276 83.6 276 83.3C271.2 49.9 275.5 50.2 290.7 32.1C291.1 31.6 290.9 30.8 290.3 30.5C283.7 27.8 283.2 23.2 283.9 13C283.9 13 283.9 13 283.9 12.9V12.1C283.9 11.8 284.1 11.5 284.3 11.3C289.2 7.6 294.2 3.9 299.1 0.2C299.3 0.1 299.5 0 299.7 0H302.9C303.7 0 304.2 0.8 303.8 1.5C303 3.1 302.2 4.7 301.4 6.3C301.1 7 301.5 7.7 302.3 7.8C311 8.4 312.8 11.7 312.4 21.6C312.4 21.8 312.3 21.9 312.3 22.1C310.1 25.8 307.8 29.6 305.5 33.3C305.1 34 305.5 34.8 306.3 34.8C315.4 35.5 317.3 38.8 323.3 42.1C323.7 42.3 323.9 42.8 323.8 43.2C319.2 66.2 297 53.6 281.2 50.4C280.6 50.3 280 50.8 280 51.4V53.2C280 53.7 280.3 54.1 280.8 54.2C286.7 55.4 292.6 56.6 298.5 57.7C299 57.8 299.3 58.2 299.3 58.7V64.6C299.3 65.2 299.8 65.6 300.3 65.6H311.2C311.8 65.6 312.2 65.1 312.2 64.6V58.7C312.2 58.2 312.5 57.8 313 57.7C319.1 56.1 320.7 53.5 325.1 50.9C325.7 50.5 326.5 50.9 326.7 51.6C328.5 63.2 335.3 77.1 323 80.9C322.8 81.2 322.5 81.4 322.4 81.6ZM276.1 95.7C276.1 96.3 275.6 96.7 275.1 96.7H270.8C270.2 96.7 269.7 96.2 269.8 95.6C270.1 91.8 270.4 88 270.8 84.2C270.9 83.2 272.1 82.9 272.7 83.7C273 84.1 273.3 84.6 273.6 85C273.6 85.1 273.7 85.1 273.7 85.1C276.2 87.8 276.2 90.4 276.1 95.7ZM212.5 123.8C211.9 123.8 211.4 123.3 211.4 122.8V122.7C211.4 121.6 213 121.3 213.4 122.3C213.4 122.3 213.4 122.3 213.4 122.4C213.7 123.1 213.2 123.8 212.5 123.8Z"/>
	</g>
	<defs>
		<clipPath id="clip0_3_3">
			<rect width="608" height="244"/>
		</clipPath>
	</defs>
</svg>